HIERARCHY
ROOT Hips
{
	OFFSET 0.00000 0.00000 0.00000
	CHANNELS 6 Xposition Yposition Zposition Zrotation Yrotation Xrotation 
	JOINT LHipJoint
	{
		OFFSET 0 0 0
		CHANNELS 3 Zrotation Yrotation Xrotation
		JOINT LeftHip
		{
			OFFSET 1.43652 -1.81092 0.91346
			CHANNELS 3 Zrotation Yrotation Xrotation
			JOINT LeftKnee
			{
				OFFSET 2.45984 -6.75837 0.00000
				CHANNELS 3 Zrotation Yrotation Xrotation
				JOINT LeftAnkle
				{
					OFFSET 2.63718 -7.24559 0.00000
					CHANNELS 3 Zrotation Yrotation Xrotation
					JOINT LeftToe
					{
						OFFSET 0.19690 -0.54098 2.12239
						CHANNELS 3 Zrotation Yrotation Xrotation
						End Site
						{
							OFFSET 0.00000 -0.00000 1.10116
						}
					}
				}
			}
		}
	}
	JOINT RHipJoint
	{
		OFFSET 0 0 0
		CHANNELS 3 Zrotation Yrotation Xrotation
		JOINT RightHip
		{
			OFFSET -1.35116 -1.81092 0.91345
			CHANNELS 3 Zrotation Yrotation Xrotation
			JOINT RightKnee
			{
				OFFSET -2.55576 -7.02189 0.00000
				CHANNELS 3 Zrotation Yrotation Xrotation
				JOINT RightAnkle
				{
					OFFSET -2.61938 -7.19669 0.00000
					CHANNELS 3 Zrotation Yrotation Xrotation
					JOINT RightToe
					{
						OFFSET -0.32509 -0.89318 2.23646
						CHANNELS 3 Zrotation Yrotation Xrotation
						End Site
						{
							OFFSET -0.00000 -0.00000 1.19625
						}
					}
				}
			}
		}
	}
	JOINT lowerback
	{
		OFFSET 0 0 0
		CHANNELS 3 Zrotation Yrotation Xrotation
		JOINT Chest
		{
			OFFSET 0.05193 2.08077 -0.11958
			CHANNELS 3 Zrotation Yrotation Xrotation
			JOINT Chest2
			{
				OFFSET 0.04960 2.08447 0.01967
				CHANNELS 3 Zrotation Yrotation Xrotation
				JOINT lowerneck
				{
					OFFSET 0 0 0
					CHANNELS 3 Zrotation Yrotation Xrotation
					JOINT Neck
					{
						OFFSET -0.10699 1.82066 0.27584
						CHANNELS 3 Zrotation Yrotation Xrotation
						JOINT Head
						{
							OFFSET 0.14949 1.84747 -0.32279
							CHANNELS 3 Zrotation Yrotation Xrotation
							End Site
							{
								OFFSET 0.04969 1.88916 -0.14562
							}
						}
					}
				}
				JOINT LeftCollar
				{
					OFFSET 0 0 0
					CHANNELS 3 Zrotation Yrotation Xrotation
					JOINT LeftShoulder
					{
						OFFSET 3.73629 1.27211 -0.12847
CHANNELS 3 Zrotation Xrotation Yrotation
						JOINT LeftElbow
						{
OFFSET 0 -5.109950 0.000000
CHANNELS 3 Zrotation Xrotation Yrotation
							JOINT LeftWrist
							{
OFFSET 0 -3.212070 0.000000
CHANNELS 3 Zrotation Xrotation Yrotation
								JOINT lhand
								{
									OFFSET 0 0 0
CHANNELS 3 Zrotation Xrotation Yrotation
									JOINT LFingers
									{
OFFSET 0 -0.633490 0.000000
CHANNELS 3 Zrotation Xrotation Yrotation
										End Site
										{
OFFSET 0 -0.510740 0.000000
										}
									}
								}
								JOINT LThumb
								{
OFFSET 0 0.000000 0.000000
CHANNELS 3 Zrotation Xrotation Yrotation
									End Site
									{
OFFSET 0 -0.518530 0.518530
									}
								}
							}
						}
					}
				}
				JOINT RightCollar
				{
					OFFSET 0 0 0
					CHANNELS 3 Zrotation Yrotation Xrotation
					JOINT RightShoulder
					{
						OFFSET -3.70251 1.29541 -0.35354
CHANNELS 3 Zrotation Xrotation Yrotation
						JOINT RightElbow
						{
OFFSET 0 -5.251090 0.000000
CHANNELS 3 Zrotation Xrotation Yrotation
							JOINT RightWrist
							{
OFFSET 0 -3.283640 0.000000
CHANNELS 3 Zrotation Xrotation Yrotation
								JOINT rhand
								{
									OFFSET 0 0 0
CHANNELS 3 Zrotation Xrotation Yrotation
									JOINT RFingers
									{
OFFSET 0 -0.599740 0.000000
CHANNELS 3 Zrotation Xrotation Yrotation
										End Site
										{
OFFSET 0 -0.483530 0.000000
										}
									}
								}
								JOINT RThumb
								{
OFFSET 0 0.000000 0.000000
CHANNELS 3 Zrotation Xrotation Yrotation
									End Site
									{
OFFSET 0 -0.490910 0.490910
									}
								}
							}
						}
					}
				}
			}
		}
	}
}
MOTION
Frames: 11
Frame Time: 0.008333333333333333
11.826389 16.704064 -1.897135 -120.126139 -85.345250 129.277938 0.000000 0.000000 0.000000 0.193157 -9.925179 -34.217993 4.469398 12.760123 38.477234 0.221612 -9.389808 -9.969074 0.216772 -2.997529 -8.271758 0.000000 0.000000 0.000000 12.054589 8.281450 -30.855836 -5.890671 -14.321587 44.541335 -1.489107 4.079779 -22.103360 -0.223033 3.040305 -8.390981 6.008679 2.547897 17.892198 4.167196 4.490873 3.237059 0.051259 1.969412 -6.391352 -1.419037 13.748472 -17.356181 -0.142080 18.979121 13.405570 2.165479 9.050980 6.759168 0.000000 0.000000 0.000000 -14.749091 -12.822834 -78.446330 24.016226 -35.181278 7.715904 35.566207 -42.483284 -41.047874 0.000000 0.000000 0.000000 -7.125000 0.000000 0.000000 -1.651065 76.923813 1.234772 0.000000 0.000000 0.000000 3.847963 -20.917180 69.039989 -19.496072 -30.029431 -5.277323 -23.293472 -47.398514 28.695793 0.000000 0.000000 0.000000 7.125000 0.000000 0.000000 8.727726 60.562183 -3.326927
11.817099 16.709036 -1.868670 -126.457185 -85.077031 135.650621 0.000000 0.000000 0.000000 0.014692 -9.697074 -34.093567 4.472963 12.764510 38.493345 0.240954 -9.131784 -10.119524 0.222903 -3.039074 -8.387555 0.000000 0.000000 0.000000 11.830188 8.773223 -30.779901 -5.855173 -14.286446 44.397521 -1.476784 4.043485 -22.013712 -0.225534 3.057020 -8.437533 5.962413 2.175059 17.907359 4.064207 3.974795 3.333299 0.082989 1.721231 -6.309068 -1.562933 14.184731 -17.064710 -0.201698 19.590356 13.071877 2.183847 9.352822 6.588195 0.000000 0.000000 0.000000 -14.635364 -13.694535 -80.890258 23.382773 -34.504457 7.354123 33.662958 -39.043786 -41.453051 0.000000 0.000000 0.000000 -7.125000 0.000000 0.000000 -5.953495 76.618756 4.414303 0.000000 0.000000 0.000000 2.094994 -18.983785 65.477803 -21.457263 -32.354603 -6.294496 -27.093947 -50.398713 27.363778 0.000000 0.000000 0.000000 7.125000 0.000000 0.000000 3.713222 60.111805 -1.374148
11.804964 16.715550 -1.831847 -133.054142 -84.658844 142.277868 0.000000 0.000000 0.000000 -0.206996 -9.352549 -33.948128 4.480763 12.774113 38.528576 0.263258 -8.849583 -10.306152 0.234995 -3.120083 -8.613173 0.000000 0.000000 0.000000 11.592677 9.279556 -30.675263 -5.803475 -14.235175 44.187922 -1.458128 4.074719 -21.863743 -0.235600 3.123880 -8.623785 5.952526 1.878327 17.950244 3.938896 3.568689 3.409988 0.044694 1.524515 -6.255666 -1.691491 14.574965 -16.802986 -0.218432 20.131737 12.830416 2.210790 9.622464 6.449713 0.000000 0.000000 0.000000 -14.618977 -14.846382 -83.353708 22.778115 -33.844954 7.014425 30.769750 -35.361821 -41.358882 0.000000 0.000000 0.000000 -7.125000 0.000000 0.000000 -10.868804 75.455081 7.802399 0.000000 0.000000 0.000000 0.731199 -16.961876 61.675087 -23.845348 -34.993838 -7.620392 -30.395963 -53.900668 25.578279 0.000000 0.000000 0.000000 7.125000 0.000000 0.000000 -0.774338 59.003128 0.257770
11.790263 16.722861 -1.786845 -139.019678 -84.112815 148.276558 0.000000 0.000000 0.000000 -0.440975 -8.988209 -33.789865 4.491663 12.787350 38.577541 0.289101 -8.509227 -10.525046 0.249966 -3.217045 -8.883522 0.000000 0.000000 0.000000 11.344085 9.751007 -30.577825 -5.739762 -14.171248 43.928004 -1.433542 4.226143 -21.648995 -0.243603 3.176207 -8.769703 6.008573 1.650191 17.969613 3.777794 3.262024 3.480723 -0.090182 1.375300 -6.187300 -1.802775 14.910402 -16.558166 -0.176321 20.586147 12.634683 2.245778 9.854892 6.324832 0.000000 0.000000 0.000000 -14.645509 -16.206751 -85.839212 22.222293 -33.227070 6.707389 26.869704 -31.283285 -40.513880 0.000000 0.000000 0.000000 -7.125000 0.000000 0.000000 -15.470428 73.254653 10.411332 0.000000 0.000000 0.000000 -0.208708 -14.947755 57.758478 -26.680045 -37.864219 -9.305211 -32.940921 -57.580348 23.444426 0.000000 0.000000 0.000000 7.125000 0.000000 0.000000 -4.237956 57.254208 1.266458
11.772768 16.731766 -1.739788 -144.660922 -83.383612 153.945910 0.000000 0.000000 0.000000 -0.690421 -8.532989 -33.583347 4.502276 12.800359 38.625711 0.320017 -8.097584 -10.797239 0.266984 -3.323757 -9.181521 0.000000 0.000000 0.000000 11.081648 10.288457 -30.472382 -5.669105 -14.099836 43.638868 -1.404146 4.492850 -21.381328 -0.241307 3.161162 -8.727742 5.991741 1.527450 17.988082 3.613901 3.081249 3.544464 -0.215471 1.288542 -6.126684 -1.924434 15.204715 -16.313174 -0.076128 20.978068 12.464033 2.291886 10.061370 6.200766 0.000000 0.000000 0.000000 -14.754968 -17.711733 -88.252036 21.662993 -32.593800 6.403477 22.746488 -26.392507 -38.463232 0.000000 0.000000 0.000000 -7.125000 0.000000 0.000000 -18.050406 69.961131 10.887123 0.000000 0.000000 0.000000 -0.801177 -12.952903 54.003257 -29.958876 -40.850294 -11.385590 -34.230797 -60.836796 20.988320 0.000000 0.000000 0.000000 7.125000 0.000000 0.000000 -6.057151 54.768098 1.454087
11.753881 16.739599 -1.680325 -148.799454 -82.752845 158.178843 0.000000 0.000000 0.000000 -0.969727 -8.305687 -33.479052 4.522568 12.825097 38.717141 0.350458 -7.647797 -11.066201 0.280029 -3.403705 -9.404817 0.000000 0.000000 0.000000 10.755769 10.569298 -30.512289 -5.600195 -14.029375 43.355441 -1.371923 4.843849 -21.082934 -0.242950 3.171828 -8.757575 6.123557 1.358210 17.924980 3.424436 2.863614 3.574799 -0.441355 1.182512 -6.051657 -2.062579 15.471350 -16.072618 0.034303 21.335772 12.323720 2.339917 10.250466 6.084309 0.000000 0.000000 0.000000 -14.967691 -19.343991 -90.539929 21.113730 -31.960766 6.110061 19.336672 -20.553468 -35.134774 0.000000 0.000000 0.000000 -7.125000 0.000000 0.000000 -18.308981 65.824566 9.343552 0.000000 0.000000 0.000000 -1.111022 -11.008727 50.514232 -33.793318 -43.926641 -13.970986 -34.483587 -63.561413 18.180525 0.000000 0.000000 0.000000 7.125000 0.000000 0.000000 -6.570091 51.585800 1.069088
11.735035 16.742206 -1.591745 -150.682598 -82.661294 160.291830 0.000000 0.000000 0.000000 -1.287826 -8.831392 -33.631832 4.563258 12.874343 38.900009 0.376111 -7.106375 -11.269352 0.287760 -3.449461 -9.532858 0.000000 0.000000 0.000000 10.291536 10.143946 -30.849363 -5.539325 -13.966555 43.103553 -1.337653 5.316547 -20.762189 -0.249781 3.216011 -8.880631 6.730734 0.926766 17.667795 3.190634 2.375664 3.562702 -0.918026 0.940502 -5.910807 -2.190597 15.734624 -15.834879 0.073602 21.698351 12.186856 2.366292 10.435751 5.978422 0.000000 0.000000 0.000000 -15.265937 -21.099981 -92.574673 20.726496 -31.507745 5.906334 16.758698 -14.342603 -30.803247 0.000000 0.000000 0.000000 -7.125000 0.000000 0.000000 -17.389132 61.047373 6.919055 0.000000 0.000000 0.000000 -1.191329 -9.243328 47.253632 -38.352966 -47.059371 -17.224757 -34.331582 -65.819144 15.099279 0.000000 0.000000 0.000000 7.125000 0.000000 0.000000 -6.554323 47.964150 0.481349
11.715175 16.743009 -1.498685 -152.639065 -82.597898 162.458963 0.000000 0.000000 0.000000 -1.651328 -9.415690 -33.773496 4.605779 12.925537 39.090436 0.401397 -6.511751 -11.483253 0.298926 -3.515229 -9.716712 0.000000 0.000000 0.000000 9.793906 9.649414 -31.198306 -5.482138 -13.907043 42.866207 -1.301304 5.795514 -20.433303 -0.261509 3.290175 -9.087648 7.302486 0.511493 17.409389 2.991601 1.899408 3.568481 -1.342925 0.705458 -5.764970 -2.310603 16.010083 -15.593882 0.051962 22.084284 12.045102 2.374931 10.627847 5.878081 0.000000 0.000000 0.000000 -15.656572 -22.932722 -94.245029 20.655646 -31.424134 5.869359 15.314620 -8.417539 -25.886840 0.000000 0.000000 0.000000 -7.125000 0.000000 0.000000 -15.734111 55.990111 4.326887 0.000000 0.000000 0.000000 -1.080640 -7.732551 44.210194 -43.819710 -50.163577 -21.332242 -34.216775 -67.864833 11.610244 0.000000 0.000000 0.000000 7.125000 0.000000 0.000000 -6.489745 43.836630 -0.186795
11.694089 16.748506 -1.431803 -156.267314 -81.848321 166.151830 0.000000 0.000000 0.000000 -2.036506 -9.179696 -33.640953 4.627931 12.952183 39.189646 0.431147 -5.962846 -11.788420 0.313974 -3.601982 -9.959583 0.000000 0.000000 0.000000 9.377025 9.929215 -31.286648 -5.425651 -13.847643 42.630602 -1.262134 6.202082 -20.094186 -0.256651 3.259266 -9.001551 7.283977 0.449394 17.364210 2.879643 1.794693 3.640656 -1.428497 0.657765 -5.666883 -2.418426 16.293866 -15.396953 0.026134 22.482880 11.961309 2.388407 10.823430 5.804865 0.000000 0.000000 0.000000 -16.135541 -24.832953 -95.697326 20.979619 -31.804278 6.039333 15.283769 -3.422886 -21.131679 0.000000 0.000000 0.000000 -7.125000 0.000000 0.000000 -13.510218 51.315986 2.147936 0.000000 0.000000 0.000000 -0.848328 -6.501009 41.492293 -50.299901 -53.095999 -26.419066 -34.075980 -69.988524 7.562988 0.000000 0.000000 0.000000 7.125000 0.000000 0.000000 -6.299879 39.012979 -0.931287
11.675121 16.755086 -1.382117 -159.824022 -80.684081 169.750649 0.000000 0.000000 0.000000 -2.391165 -8.445841 -33.446124 4.636474 12.962406 39.227770 0.459185 -5.522995 -12.103625 0.329846 -3.691292 -10.209797 0.000000 0.000000 0.000000 9.022912 10.671363 -31.333188 -5.380088 -13.799434 42.439925 -1.221702 6.545765 -19.752078 -0.240702 3.157085 -8.716371 6.951784 0.612320 17.390160 2.819747 1.934233 3.743293 -1.335774 0.732625 -5.570308 -2.545568 16.556726 -15.254909 0.010630 22.859433 11.932044 2.412293 11.005449 5.754685 0.000000 0.000000 0.000000 -16.724068 -26.848826 -97.345789 21.723638 -32.662438 6.436425 16.331165 0.010785 -17.032950 0.000000 0.000000 0.000000 -7.125000 0.000000 0.000000 -11.073255 47.372439 0.667505 0.000000 0.000000 0.000000 -0.639958 -5.634207 39.141913 -57.749065 -55.659181 -32.479755 -33.799882 -71.892283 3.355607 0.000000 0.000000 0.000000 7.125000 0.000000 0.000000 -5.897184 33.971753 -1.599161
11.660393 16.759305 -1.338676 -162.492932 -79.472515 172.512260 0.000000 0.000000 0.000000 -2.691650 -7.638853 -33.350453 4.645274 12.972820 39.266703 0.482794 -5.163547 -12.380151 0.346771 -3.783812 -10.469233 0.000000 0.000000 0.000000 8.679162 11.565719 -31.465573 -5.355503 -13.773316 42.336951 -1.184299 6.824319 -19.438555 -0.206776 2.927204 -8.076170 6.525519 0.824988 17.386711 2.823142 2.123487 3.841850 -1.132505 0.832516 -5.466842 -2.724170 16.810285 -15.132315 -0.016991 23.238141 11.938512 2.441660 11.183857 5.714586 0.000000 0.000000 0.000000 -17.461344 -28.996703 -99.331017 22.849349 -33.922398 7.054608 17.795775 1.873638 -13.616004 0.000000 0.000000 0.000000 -7.125000 0.000000 0.000000 -8.828143 44.071654 -0.196920 0.000000 0.000000 0.000000 -0.671201 -5.208571 37.221607 -65.930490 -57.677871 -39.319586 -33.467167 -73.003666 -0.486439 0.000000 0.000000 0.000000 7.125000 0.000000 0.000000 -5.402258 29.377705 -2.063224
